<svg width="225" height="69" viewBox="0 0 225 69" fill="none" xmlns="http://www.w3.org/2000/svg">
<path d="M34.5 0L64.3779 51.75H4.62212L34.5 0Z" fill="#5E49FF"/>
<path d="M76.59 44C74.9953 44 73.8607 43.678 73.186 43.034C72.542 42.3593 72.22 41.2247 72.22 39.63V16.17C72.22 14.5753 72.542 13.456 73.186 12.812C73.8607 12.1373 74.9953 11.8 76.59 11.8H82.524C83.4133 11.8 84.042 12.03 84.41 12.49C84.8087 12.9193 85.1 13.5787 85.284 14.468H78.062C77.1113 14.468 76.5133 14.6673 76.268 15.066C76.0227 15.4647 75.9 16.1393 75.9 17.09V38.71C75.9 39.6607 76.0227 40.3353 76.268 40.734C76.5133 41.1327 77.1113 41.332 78.062 41.332H85.284V42.758C85.284 43.2487 85.2073 43.586 85.054 43.77C84.9313 43.9233 84.6247 44 84.134 44H76.59ZM101.368 44V21.874C101.368 21.3833 101.444 21.0613 101.598 20.908C101.782 20.724 102.119 20.632 102.61 20.632H105.048V42.758C105.048 43.2487 104.956 43.586 104.772 43.77C104.618 43.9233 104.296 44 103.806 44H101.368ZM89.8678 21.874C89.8678 21.3833 89.9445 21.0613 90.0978 20.908C90.2818 20.724 90.6192 20.632 91.1098 20.632H93.5478V38.71C93.5478 39.6607 93.6705 40.3353 93.9158 40.734C94.1612 41.1327 94.7592 41.332 95.7098 41.332H99.5278V42.758C99.5278 43.2487 99.4512 43.586 99.2978 43.77C99.1752 43.9233 98.8685 44 98.3778 44H94.2378C92.6432 44 91.5085 43.678 90.8338 43.034C90.1898 42.3593 89.8678 41.2247 89.8678 39.63V21.874ZM114.707 23.3V42.758C114.707 43.2487 114.615 43.586 114.431 43.77C114.278 43.9233 113.956 44 113.465 44H111.027V21.874C111.027 21.3833 111.104 21.0613 111.257 20.908C111.441 20.724 111.778 20.632 112.269 20.632H114.707V23.3C115.106 22.2573 115.52 21.552 115.949 21.184C116.378 20.816 117.038 20.632 117.927 20.632H119.721C120.212 20.632 120.518 20.724 120.641 20.908C120.794 21.0613 120.871 21.3833 120.871 21.874V23.3H114.707ZM128.809 33.65C128.012 33.65 127.353 33.5887 126.831 33.466C126.341 33.3433 125.942 33.1287 125.635 32.822C125.359 32.4847 125.16 32.0553 125.037 31.534C124.945 31.0127 124.899 30.3533 124.899 29.556V25.002C124.899 23.4073 125.221 22.288 125.865 21.644C126.54 20.9693 127.675 20.632 129.269 20.632H135.433C135.924 20.632 136.231 20.724 136.353 20.908C136.507 21.0613 136.583 21.3833 136.583 21.874V23.3H130.511C129.561 23.3 128.963 23.4993 128.717 23.898C128.472 24.2967 128.349 24.9713 128.349 25.922V28.36C128.349 28.912 128.365 29.372 128.395 29.74C128.457 30.0773 128.564 30.338 128.717 30.522C128.871 30.706 129.085 30.8287 129.361 30.89C129.668 30.9513 130.051 30.982 130.511 30.982H133.133C133.931 30.982 134.575 31.0433 135.065 31.166C135.587 31.2887 135.985 31.5187 136.261 31.856C136.568 32.1627 136.767 32.5767 136.859 33.098C136.982 33.6193 137.043 34.2787 137.043 35.076V39.63C137.043 41.2247 136.706 42.3593 136.031 43.034C135.387 43.678 134.268 44 132.673 44H126.049C125.559 44 125.237 43.9233 125.083 43.77C124.961 43.586 124.899 43.2487 124.899 42.758V41.332H131.431C132.382 41.332 132.98 41.1327 133.225 40.734C133.471 40.3353 133.593 39.6607 133.593 38.71V36.272C133.593 35.3213 133.471 34.6467 133.225 34.248C132.98 33.8493 132.382 33.65 131.431 33.65H128.809ZM142.425 25.002C142.425 23.4073 142.747 22.288 143.391 21.644C144.066 20.9693 145.201 20.632 146.795 20.632H153.235C154.83 20.632 155.949 20.9693 156.593 21.644C157.268 22.288 157.605 23.4073 157.605 25.002V39.63C157.605 41.2247 157.268 42.3593 156.593 43.034C155.949 43.678 154.83 44 153.235 44H146.795C145.201 44 144.066 43.678 143.391 43.034C142.747 42.3593 142.425 41.2247 142.425 39.63V25.002ZM148.267 23.3C147.317 23.3 146.719 23.4993 146.473 23.898C146.228 24.2967 146.105 24.9713 146.105 25.922V38.71C146.105 39.6607 146.228 40.3353 146.473 40.734C146.719 41.1327 147.317 41.332 148.267 41.332H151.763C152.714 41.332 153.312 41.1327 153.557 40.734C153.803 40.3353 153.925 39.6607 153.925 38.71V25.922C153.925 24.9713 153.803 24.2967 153.557 23.898C153.312 23.4993 152.714 23.3 151.763 23.3H148.267ZM167.038 33.65C166.241 33.65 165.581 33.5887 165.06 33.466C164.569 33.3433 164.171 33.1287 163.864 32.822C163.588 32.4847 163.389 32.0553 163.266 31.534C163.174 31.0127 163.128 30.3533 163.128 29.556V25.002C163.128 23.4073 163.45 22.288 164.094 21.644C164.769 20.9693 165.903 20.632 167.498 20.632H173.662C174.153 20.632 174.459 20.724 174.582 20.908C174.735 21.0613 174.812 21.3833 174.812 21.874V23.3H168.74C167.789 23.3 167.191 23.4993 166.946 23.898C166.701 24.2967 166.578 24.9713 166.578 25.922V28.36C166.578 28.912 166.593 29.372 166.624 29.74C166.685 30.0773 166.793 30.338 166.946 30.522C167.099 30.706 167.314 30.8287 167.59 30.89C167.897 30.9513 168.28 30.982 168.74 30.982H171.362C172.159 30.982 172.803 31.0433 173.294 31.166C173.815 31.2887 174.214 31.5187 174.49 31.856C174.797 32.1627 174.996 32.5767 175.088 33.098C175.211 33.6193 175.272 34.2787 175.272 35.076V39.63C175.272 41.2247 174.935 42.3593 174.26 43.034C173.616 43.678 172.497 44 170.902 44H164.278C163.787 44 163.465 43.9233 163.312 43.77C163.189 43.586 163.128 43.2487 163.128 42.758V41.332H169.66C170.611 41.332 171.209 41.1327 171.454 40.734C171.699 40.3353 171.822 39.6607 171.822 38.71V36.272C171.822 35.3213 171.699 34.6467 171.454 34.248C171.209 33.8493 170.611 33.65 169.66 33.65H167.038ZM184.656 38.71C184.656 39.6607 184.779 40.3353 185.024 40.734C185.269 41.1327 185.867 41.332 186.818 41.332H190.958C191.909 41.332 192.507 41.1327 192.752 40.734C192.997 40.3353 193.12 39.6607 193.12 38.71V17.09C193.12 16.1393 192.997 15.4647 192.752 15.066C192.507 14.6673 191.909 14.468 190.958 14.468H186.818C185.867 14.468 185.269 14.6673 185.024 15.066C184.779 15.4647 184.656 16.1393 184.656 17.09V38.71ZM180.976 16.17C180.976 14.5753 181.298 13.456 181.942 12.812C182.617 12.1373 183.751 11.8 185.346 11.8H192.43C194.025 11.8 195.144 12.1373 195.788 12.812C196.463 13.456 196.8 14.5753 196.8 16.17V39.63C196.8 41.2247 196.463 42.3593 195.788 43.034C195.144 43.678 194.025 44 192.43 44H185.346C183.751 44 182.617 43.678 181.942 43.034C181.298 42.3593 180.976 41.2247 180.976 39.63V16.17ZM215.585 31.488L218.115 38.342H218.391L217.655 31.35V13.042C217.655 12.5513 217.732 12.2293 217.885 12.076C218.069 11.892 218.406 11.8 218.897 11.8H221.335V42.758C221.335 43.2487 221.243 43.586 221.059 43.77C220.906 43.9233 220.584 44 220.093 44H217.701L209.191 24.68L206.615 17.274H206.339L207.029 23.714V42.758C207.029 43.2487 206.937 43.586 206.753 43.77C206.6 43.9233 206.278 44 205.787 44H203.349V13.042C203.349 12.5513 203.426 12.2293 203.579 12.076C203.763 11.892 204.1 11.8 204.591 11.8H207.075L215.585 31.488Z" fill="#5E49FF"/>
</svg>
