<svg width="565" height="180" viewBox="0 0 565 180" fill="none" xmlns="http://www.w3.org/2000/svg">
<path d="M92.6461 0L172.88 135H12.4122L92.6461 0Z" fill="white"/>
<path d="M204.614 111.364C200.558 111.364 197.672 110.545 195.956 108.907C194.318 107.191 193.499 104.305 193.499 100.249V40.5793C193.499 36.5233 194.318 33.6763 195.956 32.0383C197.672 30.3223 200.558 29.4643 204.614 29.4643H219.707C221.969 29.4643 223.568 30.0493 224.504 31.2193C225.518 32.3113 226.259 33.9883 226.727 36.2503H208.358C205.94 36.2503 204.419 36.7573 203.795 37.7713C203.171 38.7853 202.859 40.5013 202.859 42.9193V97.9093C202.859 100.327 203.171 102.043 203.795 103.057C204.419 104.071 205.94 104.578 208.358 104.578H226.727V108.205C226.727 109.453 226.532 110.311 226.142 110.779C225.83 111.169 225.05 111.364 223.802 111.364H204.614ZM267.636 111.364V55.0873C267.636 53.8393 267.831 53.0203 268.221 52.6303C268.689 52.1623 269.547 51.9283 270.795 51.9283H276.996V108.205C276.996 109.453 276.762 110.311 276.294 110.779C275.904 111.169 275.085 111.364 273.837 111.364H267.636ZM238.386 55.0873C238.386 53.8393 238.581 53.0203 238.971 52.6303C239.439 52.1623 240.297 51.9283 241.545 51.9283H247.746V97.9093C247.746 100.327 248.058 102.043 248.682 103.057C249.306 104.071 250.827 104.578 253.245 104.578H262.956V108.205C262.956 109.453 262.761 110.311 262.371 110.779C262.059 111.169 261.279 111.364 260.031 111.364H249.501C245.445 111.364 242.559 110.545 240.843 108.907C239.205 107.191 238.386 104.305 238.386 100.249V55.0873ZM301.564 58.7143V108.205C301.564 109.453 301.33 110.311 300.862 110.779C300.472 111.169 299.653 111.364 298.405 111.364H292.204V55.0873C292.204 53.8393 292.399 53.0203 292.789 52.6303C293.257 52.1623 294.115 51.9283 295.363 51.9283H301.564V58.7143C302.578 56.0623 303.631 54.2683 304.723 53.3323C305.815 52.3963 307.492 51.9283 309.754 51.9283H314.317C315.565 51.9283 316.345 52.1623 316.657 52.6303C317.047 53.0203 317.242 53.8393 317.242 55.0873V58.7143H301.564ZM337.433 85.0393C335.405 85.0393 333.728 84.8833 332.402 84.5713C331.154 84.2593 330.14 83.7133 329.36 82.9333C328.658 82.0753 328.151 80.9833 327.839 79.6573C327.605 78.3313 327.488 76.6543 327.488 74.6263V63.0433C327.488 58.9873 328.307 56.1403 329.945 54.5023C331.661 52.7863 334.547 51.9283 338.603 51.9283H354.281C355.529 51.9283 356.309 52.1623 356.621 52.6303C357.011 53.0203 357.206 53.8393 357.206 55.0873V58.7143H341.762C339.344 58.7143 337.823 59.2213 337.199 60.2353C336.575 61.2493 336.263 62.9653 336.263 65.3833V71.5843C336.263 72.9883 336.302 74.1583 336.38 75.0943C336.536 75.9523 336.809 76.6153 337.199 77.0833C337.589 77.5513 338.135 77.8633 338.837 78.0193C339.617 78.1753 340.592 78.2533 341.762 78.2533H348.431C350.459 78.2533 352.097 78.4093 353.345 78.7213C354.671 79.0333 355.685 79.6183 356.387 80.4763C357.167 81.2563 357.674 82.3093 357.908 83.6353C358.22 84.9613 358.376 86.6383 358.376 88.6663V100.249C358.376 104.305 357.518 107.191 355.802 108.907C354.164 110.545 351.317 111.364 347.261 111.364H330.413C329.165 111.364 328.346 111.169 327.956 110.779C327.644 110.311 327.488 109.453 327.488 108.205V104.578H344.102C346.52 104.578 348.041 104.071 348.665 103.057C349.289 102.043 349.601 100.327 349.601 97.9093V91.7083C349.601 89.2903 349.289 87.5743 348.665 86.5603C348.041 85.5463 346.52 85.0393 344.102 85.0393H337.433ZM372.065 63.0433C372.065 58.9873 372.884 56.1403 374.522 54.5023C376.238 52.7863 379.124 51.9283 383.18 51.9283H399.56C403.616 51.9283 406.463 52.7863 408.101 54.5023C409.817 56.1403 410.675 58.9873 410.675 63.0433V100.249C410.675 104.305 409.817 107.191 408.101 108.907C406.463 110.545 403.616 111.364 399.56 111.364H383.18C379.124 111.364 376.238 110.545 374.522 108.907C372.884 107.191 372.065 104.305 372.065 100.249V63.0433ZM386.924 58.7143C384.506 58.7143 382.985 59.2213 382.361 60.2353C381.737 61.2493 381.425 62.9653 381.425 65.3833V97.9093C381.425 100.327 381.737 102.043 382.361 103.057C382.985 104.071 384.506 104.578 386.924 104.578H395.816C398.234 104.578 399.755 104.071 400.379 103.057C401.003 102.043 401.315 100.327 401.315 97.9093V65.3833C401.315 62.9653 401.003 61.2493 400.379 60.2353C399.755 59.2213 398.234 58.7143 395.816 58.7143H386.924ZM434.667 85.0393C432.639 85.0393 430.962 84.8833 429.636 84.5713C428.388 84.2593 427.374 83.7133 426.594 82.9333C425.892 82.0753 425.385 80.9833 425.073 79.6573C424.839 78.3313 424.722 76.6543 424.722 74.6263V63.0433C424.722 58.9873 425.541 56.1403 427.179 54.5023C428.895 52.7863 431.781 51.9283 435.837 51.9283H451.515C452.763 51.9283 453.543 52.1623 453.855 52.6303C454.245 53.0203 454.44 53.8393 454.44 55.0873V58.7143H438.996C436.578 58.7143 435.057 59.2213 434.433 60.2353C433.809 61.2493 433.497 62.9653 433.497 65.3833V71.5843C433.497 72.9883 433.536 74.1583 433.614 75.0943C433.77 75.9523 434.043 76.6153 434.433 77.0833C434.823 77.5513 435.369 77.8633 436.071 78.0193C436.851 78.1753 437.826 78.2533 438.996 78.2533H445.665C447.693 78.2533 449.331 78.4093 450.579 78.7213C451.905 79.0333 452.919 79.6183 453.621 80.4763C454.401 81.2563 454.908 82.3093 455.142 83.6353C455.454 84.9613 455.61 86.6383 455.61 88.6663V100.249C455.61 104.305 454.752 107.191 453.036 108.907C451.398 110.545 448.551 111.364 444.495 111.364H427.647C426.399 111.364 425.58 111.169 425.19 110.779C424.878 110.311 424.722 109.453 424.722 108.205V104.578H441.336C443.754 104.578 445.275 104.071 445.899 103.057C446.523 102.043 446.835 100.327 446.835 97.9093V91.7083C446.835 89.2903 446.523 87.5743 445.899 86.5603C445.275 85.5463 443.754 85.0393 441.336 85.0393H434.667ZM479.478 97.9093C479.478 100.327 479.79 102.043 480.414 103.057C481.038 104.071 482.559 104.578 484.977 104.578H495.507C497.925 104.578 499.446 104.071 500.07 103.057C500.694 102.043 501.006 100.327 501.006 97.9093V42.9193C501.006 40.5013 500.694 38.7853 500.07 37.7713C499.446 36.7573 497.925 36.2503 495.507 36.2503H484.977C482.559 36.2503 481.038 36.7573 480.414 37.7713C479.79 38.7853 479.478 40.5013 479.478 42.9193V97.9093ZM470.118 40.5793C470.118 36.5233 470.937 33.6763 472.575 32.0383C474.291 30.3223 477.177 29.4643 481.233 29.4643H499.251C503.307 29.4643 506.154 30.3223 507.792 32.0383C509.508 33.6763 510.366 36.5233 510.366 40.5793V100.249C510.366 104.305 509.508 107.191 507.792 108.907C506.154 110.545 503.307 111.364 499.251 111.364H481.233C477.177 111.364 474.291 110.545 472.575 108.907C470.937 107.191 470.118 104.305 470.118 100.249V40.5793ZM553.699 51.9283C557.755 51.9283 560.602 52.7863 562.24 54.5023C563.956 56.1403 564.814 58.9873 564.814 63.0433V108.205C564.814 109.453 564.58 110.311 564.112 110.779C563.722 111.169 562.903 111.364 561.655 111.364H555.454V65.3833C555.454 62.9653 555.142 61.2493 554.518 60.2353C553.894 59.2213 552.373 58.7143 549.955 58.7143H535.564V108.205C535.564 109.453 535.33 110.311 534.862 110.779C534.472 111.169 533.653 111.364 532.405 111.364H526.204V55.0873C526.204 53.8393 526.399 53.0203 526.789 52.6303C527.257 52.1623 528.115 51.9283 529.363 51.9283H535.564V58.7143C536.032 56.4523 536.734 54.7753 537.67 53.6833C538.684 52.5133 540.322 51.9283 542.584 51.9283H553.699Z" fill="white"/>
</svg>
